<svg width="127" height="32" viewBox="0 0 127 32" fill="none" xmlns="http://www.w3.org/2000/svg"><g clip-path="url(#clip0)"><path d="M1.904 25H13.72v-4.032H6.44V5.4H1.904V25zm20.029.364c1.876 0 3.556-.924 4.284-2.268V25h4.256V11.504h-4.256v1.932c-.728-1.372-2.268-2.296-4.228-2.296-3.92 0-6.412 3.08-6.412 7.112 0 4.06 2.324 7.112 6.356 7.112zm1.232-3.556c-1.988 0-3.22-1.512-3.22-3.556s1.232-3.528 3.22-3.528c2.128 0 3.22 1.596 3.22 3.528 0 1.96-1.092 3.556-3.22 3.556zM43.69 5.4v8.036c-.728-1.372-2.268-2.296-4.228-2.296-3.92 0-6.412 3.08-6.412 7.112 0 4.06 2.324 7.112 6.356 7.112 1.876 0 3.556-.924 4.284-2.268V25h4.256V5.4H43.69zm-3.052 16.408c-1.988 0-3.22-1.512-3.22-3.556s1.232-3.528 3.22-3.528c2.128 0 3.22 1.596 3.22 3.528 0 1.96-1.092 3.556-3.22 3.556zM53.63 10.104c1.568 0 2.66-1.176 2.66-2.632 0-1.428-1.092-2.632-2.66-2.632a2.617 2.617 0 00-2.66 2.632c0 1.456 1.12 2.632 2.66 2.632zM51.502 25h4.256V11.504h-4.256V25zm14.177.364c3.584 0 6.3-1.764 6.72-4.424h-4.2c-.364.84-1.204 1.204-2.52 1.204-1.904 0-3.08-.952-3.164-2.716h9.968c.084-.756.112-1.176.112-1.876 0-3.808-2.856-6.412-7.056-6.412-4.396 0-7.28 2.688-7.28 7.112 0 4.508 2.828 7.112 7.42 7.112zm-3.164-8.596c.028-1.652 1.148-2.744 2.996-2.744 1.82 0 2.828.952 2.856 2.744h-5.852zm17.934 8.596c3.584 0 5.908-1.652 5.908-4.452 0-2.044-1.288-3.332-3.416-3.892l-2.856-.784c-1.092-.28-1.484-.672-1.484-1.288 0-.644.616-1.092 1.54-1.092 1.148 0 1.848.504 1.848 1.456h4.228c0-2.688-2.212-4.172-6.02-4.172-3.472 0-5.768 1.68-5.768 4.228 0 2.044 1.232 3.416 3.388 3.948l2.828.7c1.148.28 1.456.644 1.456 1.26 0 .784-.644 1.232-1.568 1.232-1.316 0-2.212-.644-2.212-1.568h-4.256c0 2.632 2.548 4.424 6.384 4.424z" fill="#342869"/><path clip-rule="evenodd" d="M127 10.053L114 27l-13-16.947L106.2 4h15.6l5.2 6.053z" stroke="#342869" stroke-width="4" stroke-linecap="square"/><path d="M111 12h6" stroke="#342869" stroke-width="4" stroke-linecap="square"/></g><defs><clipPath id="clip0"><path fill="#fff" d="M0 0h127v32H0z"/></clipPath></defs></svg>