<svg width="160" height="39" viewBox="0 0 160 39" fill="none" xmlns="http://www.w3.org/2000/svg"><path d="M16.502 27.453c-.811.264-1.704.474-2.68.629a17.61 17.61 0 01-2.953.246c-1.704 0-3.149-.196-4.334-.588-1.176-.4-2.133-1.007-2.87-1.818-.74-.82-1.272-1.846-1.6-3.076-.329-1.24-.493-2.698-.493-4.375 0-1.75.16-3.277.479-4.58.328-1.304.843-2.388 1.545-3.254.702-.866 1.604-1.513 2.707-1.942 1.112-.437 2.456-.656 4.033-.656.556 0 1.103.027 1.64.082a18.02 18.02 0 011.545.219c.493.091.948.196 1.368.314.428.119.806.242 1.134.37l-.902 2.748a17.995 17.995 0 00-2.078-.616 9.501 9.501 0 00-2.31-.273c-.976 0-1.8.146-2.475.437a3.836 3.836 0 00-1.64 1.326c-.411.593-.707 1.34-.89 2.243-.182.902-.273 1.96-.273 3.172 0 1.294.1 2.41.3 3.35.201.929.525 1.699.972 2.31a4.004 4.004 0 001.75 1.34c.729.282 1.613.423 2.652.423.793 0 1.586-.073 2.379-.218a16.238 16.238 0 002.228-.56l.766 2.747zm16.174-13.672v8.778c0 .738.004 1.358.014 1.859a22.318 22.318 0 00.136 1.818l.055.424.082.424c.036.146.077.305.123.479a41.91 41.91 0 01-1.777.423c-.584.119-1.176.233-1.778.342a8.187 8.187 0 01-.191-.56 10.067 10.067 0 01-.219-1.313 37.705 37.705 0 01-.082-.875h-.178a8.67 8.67 0 01-.943 1.203 5.435 5.435 0 01-1.04.861c-.364.228-.77.397-1.216.506a5.594 5.594 0 01-1.463.178c-1.14 0-2.037-.228-2.693-.683-.647-.465-1.117-1.122-1.408-1.97a7.745 7.745 0 01-.37-1.626 16.157 16.157 0 01-.109-1.942v-8.326h3.746v9.406c0 .784.178 1.381.533 1.791.365.41.857.616 1.477.616a2.24 2.24 0 001.012-.246 4.61 4.61 0 00.97-.643c.31-.264.597-.565.862-.902.264-.347.501-.693.71-1.04v-8.982h3.747zm8.38 2.434c.329-.483.634-.88.917-1.19.273-.3.56-.546.861-.738.3-.2.601-.36.902-.478.31-.128.62-.215.93-.26.31-.055.615-.082.916-.082.255 0 .501.018.738.054.246.028.474.064.684.11-.027.255-.064.528-.11.82-.045.283-.095.57-.15.861-.054.292-.118.58-.191.862a12.61 12.61 0 01-.205.793c-.52-.1-.971-.182-1.354-.246a5.545 5.545 0 00-1.025-.11c-.283 0-.543.041-.78.123a2.043 2.043 0 00-.683.397 4.937 4.937 0 00-.711.765c-.237.31-.506.702-.807 1.176V28h-3.746v-8.764c0-.528-.004-1.02-.014-1.476a27.363 27.363 0 00-.054-1.3 14.33 14.33 0 00-.123-1.161 10.03 10.03 0 00-.219-1.067 38.884 38.884 0 013.555-.766c.064.192.123.384.178.575.054.182.1.383.136.602.037.21.069.442.096.697.027.255.055.547.082.875h.178zm15.094-2.748c1.194 0 2.229.187 3.104.56.875.374 1.595.894 2.16 1.559.574.656.998 1.44 1.271 2.351.283.903.424 1.887.424 2.954 0 1.066-.14 2.055-.424 2.966a6.383 6.383 0 01-1.27 2.366c-.566.656-1.286 1.17-2.161 1.545-.875.373-1.91.56-3.104.56-1.194 0-2.228-.187-3.103-.56-.875-.374-1.6-.89-2.174-1.545-.565-.666-.989-1.454-1.271-2.366-.274-.911-.41-1.9-.41-2.966 0-1.067.136-2.051.41-2.953.282-.912.706-1.696 1.271-2.352.574-.665 1.299-1.185 2.174-1.559.875-.373 1.91-.56 3.103-.56zm0 2.68c-.656 0-1.194.123-1.613.369a2.62 2.62 0 00-.984 1.011c-.237.429-.401.935-.492 1.518a12.93 12.93 0 00-.123 1.846c0 .665.04 1.29.122 1.873a4.59 4.59 0 00.493 1.504c.237.428.565.765.984 1.011.42.246.957.37 1.613.37.657 0 1.194-.124 1.614-.37.419-.246.747-.583.984-1.011a4.36 4.36 0 00.479-1.504 12.15 12.15 0 00.136-1.873c0-.657-.045-1.272-.136-1.846-.082-.583-.242-1.09-.479-1.518a2.625 2.625 0 00-.984-1.011c-.42-.246-.957-.37-1.614-.37zm13.522 6.275c0 .756.004 1.39.014 1.9a23.016 23.016 0 00.136 1.873l.055.438c.018.137.041.278.068.424l.123.465c-.601.182-1.203.341-1.804.478a28.48 28.48 0 01-1.846.328c-.137-.41-.255-.843-.356-1.299a7.897 7.897 0 01-.136-1.517v-17.2h3.746v14.11zm10.103-8.955c1.194 0 2.229.187 3.104.56.875.374 1.595.894 2.16 1.559.574.656.998 1.44 1.272 2.351.282.903.423 1.887.423 2.954 0 1.066-.14 2.055-.423 2.966a6.386 6.386 0 01-1.272 2.366c-.565.656-1.285 1.17-2.16 1.545-.875.373-1.91.56-3.104.56-1.194 0-2.228-.187-3.103-.56-.875-.374-1.6-.89-2.174-1.545-.565-.666-.989-1.454-1.271-2.366-.274-.911-.41-1.9-.41-2.966 0-1.067.136-2.051.41-2.953.282-.912.706-1.696 1.271-2.352.574-.665 1.299-1.185 2.174-1.559.875-.373 1.91-.56 3.103-.56zm0 2.68c-.656 0-1.194.123-1.613.369a2.62 2.62 0 00-.984 1.011c-.237.429-.401.935-.492 1.518-.083.574-.124 1.19-.124 1.846 0 .665.041 1.29.124 1.873.09.574.255 1.075.492 1.504.237.428.565.765.984 1.011.42.246.957.37 1.613.37.657 0 1.194-.124 1.614-.37.419-.246.747-.583.984-1.011.237-.429.396-.93.479-1.504a12.15 12.15 0 00.136-1.873c0-.657-.045-1.272-.136-1.846-.083-.583-.242-1.09-.479-1.518a2.625 2.625 0 00-.984-1.011c-.42-.246-.957-.37-1.614-.37zm19.715-2.38c.438 0 .811-.004 1.121-.013a8.788 8.788 0 001.778-.232c.31-.073.683-.17 1.121-.288.136.42.278.857.424 1.313.145.446.282.893.41 1.34-.301.11-.579.2-.834.273a12.25 12.25 0 01-.725.192 8.956 8.956 0 01-.683.109 15.27 15.27 0 01-.711.041c.173.392.291.78.355 1.162.064.374.096.77.096 1.19 0 .875-.132 1.64-.397 2.296a4.58 4.58 0 01-1.134 1.655 4.202 4.202 0 01-1.026.683 7.603 7.603 0 01-1.203.451c-.42.11-.848.187-1.285.233a11.91 11.91 0 01-1.244.068 11.52 11.52 0 01-2.024-.164c-.155.438-.232.784-.232 1.04 0 .172.032.323.096.45a.96.96 0 00.341.315c.237.128.52.21.848.246.337.036.706.055 1.108.055h1.038c.201-.01.392-.014.575-.014h.492c.73 0 1.39.068 1.982.205.593.128 1.099.337 1.518.629.428.292.756.679.984 1.162.237.483.356 1.071.356 1.764 0 .793-.196 1.458-.588 1.996a4.261 4.261 0 01-1.531 1.326c-.638.337-1.368.579-2.188.725-.82.155-1.668.232-2.543.232-.629 0-1.258-.036-1.887-.11-.62-.063-1.22-.15-1.804-.26a15.976 15.976 0 01-1.3-.314 13.36 13.36 0 01-1.12-.355c.118-.283.291-.643.52-1.08.236-.438.496-.907.779-1.408.93.328 1.814.57 2.652.724.838.155 1.604.233 2.297.233.428 0 .83-.028 1.203-.082.374-.055.697-.146.97-.274.274-.127.488-.3.643-.52.164-.209.246-.478.246-.806 0-.255-.054-.46-.164-.615a1.09 1.09 0 00-.45-.342 2.35 2.35 0 00-.684-.164 11.773 11.773 0 00-.834-.027h-.397a6.237 6.237 0 01-.41.013h-.438c-.419 0-.838-.009-1.257-.027a8.356 8.356 0 01-1.19-.11 5.37 5.37 0 01-1.066-.287 2.76 2.76 0 01-.862-.492 2.492 2.492 0 01-.574-.806c-.136-.328-.205-.72-.205-1.176 0-.447.087-.898.26-1.354a9.05 9.05 0 01.656-1.38 4.228 4.228 0 01-.738-.643 4.776 4.776 0 01-.643-.93 6.28 6.28 0 01-.45-1.23 6.573 6.573 0 01-.165-1.532c0-.856.132-1.613.396-2.269a4.815 4.815 0 011.149-1.695c.292-.274.62-.502.984-.684a6.222 6.222 0 011.149-.437c.4-.11.816-.187 1.244-.233a12.04 12.04 0 011.258-.068c.52 0 1.007.032 1.463.095.455.055.856.123 1.203.206h1.271zm-3.883 2.23c-.802 0-1.435.24-1.9.724-.465.483-.697 1.194-.697 2.133 0 .966.232 1.686.697 2.16.474.465 1.108.697 1.9.697.802 0 1.436-.242 1.9-.725.466-.483.698-1.194.698-2.133 0-.947-.242-1.658-.724-2.132-.474-.483-1.099-.725-1.874-.725zm24.5-2.216v14.11c0 1.066-.173 1.968-.519 2.707a4.53 4.53 0 01-1.449 1.818c-.62.465-1.368.802-2.243 1.012-.865.21-1.822.314-2.871.314-.811 0-1.636-.073-2.474-.219a11.14 11.14 0 01-2.311-.629c.192-.455.388-.902.588-1.34.201-.437.406-.874.615-1.312.657.21 1.322.388 1.996.533a8.738 8.738 0 001.956.233c.182 0 .378-.01.587-.027.219-.01.438-.042.657-.096a2.6 2.6 0 00.642-.26c.21-.11.392-.264.547-.465.164-.191.296-.437.397-.738.1-.292.155-.647.164-1.067V25.58h-.123a8.794 8.794 0 01-.944 1.203 5.426 5.426 0 01-1.039.861 4.318 4.318 0 01-1.23.506 5.817 5.817 0 01-1.491.178c-.893 0-1.631-.141-2.214-.424a3.51 3.51 0 01-1.409-1.216c-.346-.547-.592-1.204-.738-1.97-.146-.765-.219-1.635-.219-2.61V13.78h3.747v9.406c0 .784.182 1.381.546 1.791.365.41.866.616 1.504.616.347 0 .684-.082 1.012-.246.337-.164.661-.379.971-.643.31-.264.597-.565.861-.902.264-.347.501-.693.711-1.04V13.78h3.773z" fill="#342869"/><path clip-rule="evenodd" d="M157 14.053L144 31l-13-16.947L136.2 8h15.6l5.2 6.053z" stroke="#342869" stroke-width="4" stroke-linecap="square"/><path d="M141 16h6" stroke="#342869" stroke-width="4" stroke-linecap="square"/></svg>